<svg xmlns="http://www.w3.org/2000/svg" version="1.1" xmlns:xlink="http://www.w3.org/1999/xlink" viewBox="0 0 0.8158488721778778 0.7226722282432596"><g transform="matrix(1,0,0,1,-1.931681462348561,-0.4931189640033701)"><g transform="matrix(1,0,0,1,0,0)"><g clip-path="url(#SvgjsClipPath1000)"><path d=" M 1.99564530859375 0.854455078125 L 2.167333187452213 0.557082810248559 L 2.51071588385539 0.557082810248559 L 2.682392859064031 0.854455078125 L 2.51071588385539 1.1518273460014408 L 2.167333187452213 1.1518273460014408 L 1.99564530859375 0.854455078125 Z" fill="#00bc8f" transform="matrix(1,0,0,1,0,0)" fill-rule="nonzero"></path></g></g><g transform="matrix(1,0,0,1,0,0)"><path d=" M 2.13035663671875 0.8919571289062499 Q 2.13035663671875 0.8867364257812499 2.12948651953125 0.8832559570312499 Q 2.12861640234375 0.87977548828125 2.1268761679687502 0.877643701171875 Q 2.12513593359375 0.8755119140625 2.12261259375 0.87455478515625 Q 2.12008925390625 0.8735976562499999 2.11678280859375 0.8734236328124999 L 2.11225819921875 0.8731625976562499 L 2.11225819921875 0.8575875 L 2.116695796875 0.85732646484375 Q 2.1200022421875 0.8571524414062499 2.1225255820312503 0.8561953124999999 Q 2.125048921875 0.8552381835937499 2.12678915625 0.8531063964843749 Q 2.1285293906250002 0.8509746093749999 2.1293995078125003 0.8475376464843749 Q 2.130269625 0.8441006835937499 2.130269625 0.8388799804687499 L 2.130269625 0.8024220703124999 Q 2.130269625 0.79345986328125 2.132575435546875 0.7871080078124999 Q 2.1348812460937503 0.7807561523437498 2.138840279296875 0.776710107421875 Q 2.1427993125 0.7726640624999999 2.1480200156250002 0.7708368164062499 Q 2.1532407187500002 0.7690095703125 2.159157515625 0.7690095703125 Q 2.161941890625 0.7690095703125 2.1653788535156253 0.7696186523437499 Q 2.16881581640625 0.7702277343749999 2.1722092734375003 0.7712718749999998 L 2.1722092734375003 0.7846716796875 L 2.1689028281250002 0.7846716796875 Q 2.1635081015625 0.7846716796875 2.159897115234375 0.7852807617187498 Q 2.1562861289062503 0.7858898437499999 2.15402382421875 0.78728203125 Q 2.15176151953125 0.7886742187499999 2.1508043906250003 0.7909800292968749 Q 2.14984726171875 0.7932858398437499 2.14984726171875 0.7966792968749999 L 2.14984726171875 0.8315709960937498 Q 2.14984726171875 0.8380098632812499 2.149194673828125 0.8431870605468749 Q 2.1485420859375 0.8483642578124999 2.1469323691406252 0.8524538085937499 Q 2.1453226523437503 0.8565433593749999 2.1425817832031253 0.8595017578124999 Q 2.1398409140625003 0.8624601562499999 2.13575136328125 0.8642874023437499 L 2.13575136328125 0.8665497070312499 Q 2.13975390234375 0.8683769531249999 2.142451265625 0.8713353515625 Q 2.14514862890625 0.8742937499999999 2.1468018515625 0.8783397949218749 Q 2.14845507421875 0.88238583984375 2.1491511679687503 0.8876065429687499 Q 2.14984726171875 0.8928272460937499 2.14984726171875 0.8991791015624999 L 2.14984726171875 0.9344188476562499 Q 2.14984726171875 0.9378123046874999 2.1508043906250003 0.9401181152343749 Q 2.15176151953125 0.9424239257812499 2.15402382421875 0.9438596191406249 Q 2.1562861289062503 0.9452953124999999 2.159897115234375 0.94590439453125 Q 2.1635081015625 0.9465134765625 2.1689028281250002 0.9465134765625 L 2.1722092734375003 0.9465134765625 L 2.1722092734375003 0.9598262695312499 Q 2.16881581640625 0.9609574218749999 2.1653788535156253 0.96156650390625 Q 2.161941890625 0.9621755859375 2.159157515625 0.9621755859375 Q 2.1532407187500002 0.9621755859375 2.1480200156250002 0.9603483398437499 Q 2.1427993125 0.9585210937499999 2.13888378515625 0.954475048828125 Q 2.1349682578125 0.95042900390625 2.1326624472656253 0.9440771484374999 Q 2.13035663671875 0.93772529296875 2.13035663671875 0.9286760742187499 L 2.13035663671875 0.8919571289062499 M 2.2396799003906254 0.9412927734375 Q 2.231326775390625 0.9412927734375 2.2256710136718754 0.938682421875 Q 2.220015251953125 0.9360720703125 2.2165782890625003 0.9315909667968749 Q 2.213141326171875 0.9271098632812499 2.2116621269531254 0.9211060546875 Q 2.210182927734375 0.9151022460937499 2.210182927734375 0.90840234375 Q 2.210182927734375 0.9037037109374999 2.2107920097656253 0.897830419921875 Q 2.2114010917968754 0.8919571289062499 2.212619255859375 0.8860403320312499 L 2.2306306816406254 0.8860403320312499 L 2.2303696464843754 0.9041387695312499 Q 2.2303696464843754 0.9098815429687499 2.2308917167968754 0.913753564453125 Q 2.2314137871093753 0.9176255859374999 2.2325014335937503 0.9199313964843749 Q 2.2335890800781253 0.9222372070312499 2.2352858085937504 0.923237841796875 Q 2.2369825371093754 0.9242384765624999 2.2394188652343754 0.9242384765624999 Q 2.241420134765625 0.9242384765624999 2.2430298515625005 0.9234553710937499 Q 2.2446395683593754 0.9226722656249999 2.2457707207031254 0.9207145019531249 Q 2.2469018730468755 0.9187567382812499 2.247510955078125 0.915406787109375 Q 2.2481200371093752 0.9120568359374999 2.2481200371093752 0.9070101562499999 L 2.2483810722656252 0.7912845703124999 L 2.2709171074218752 0.7912845703124999 L 2.2709171074218752 0.903877734375 Q 2.2709171074218752 0.9153632812499999 2.2683067558593755 0.9226722656249999 Q 2.2656964042968752 0.9299812499999999 2.2613023125000002 0.9341143066406249 Q 2.2569082207031252 0.9382473632812499 2.2512959648437505 0.9397700683593749 Q 2.2456837089843753 0.9412927734375 2.2396799003906254 0.9412927734375 M 2.31654779296875 0.9243254882812499 Q 2.31654779296875 0.9151022460937499 2.3202022851562503 0.9110997070312499 Q 2.3238567773437504 0.90709716796875 2.3301216210937503 0.90709716796875 Q 2.3366475 0.90709716796875 2.34021498046875 0.9113607421875 Q 2.3437824609375 0.91562431640625 2.3437824609375 0.9243254882812499 Q 2.3437824609375 0.9323305664062499 2.340171474609375 0.9367246582031249 Q 2.33656048828125 0.9411187499999999 2.330034609375 0.9411187499999999 Q 2.3238567773437504 0.9411187499999999 2.3202022851562503 0.9368551757812499 Q 2.31654779296875 0.9325916015624999 2.31654779296875 0.9243254882812499 M 2.3904572871093754 0.7912845703124999 L 2.4138634394531255 0.7912845703124999 Q 2.4191711542968752 0.7912845703124999 2.424870421875 0.7915891113281249 Q 2.4305696894531255 0.7918936523437499 2.4360079218750004 0.79345986328125 Q 2.4414461542968753 0.7950260742187499 2.4462753046875005 0.7982890136718749 Q 2.4511044550781254 0.8015519531249999 2.4547589472656255 0.8074252441406249 Q 2.458413439453125 0.8132985351562498 2.4605452265625005 0.8222172363281249 Q 2.4626770136718754 0.8311359374999999 2.4626770136718754 0.8440136718749999 L 2.4626770136718754 0.8871714843749999 Q 2.4626770136718754 0.9000492187499999 2.4605452265625005 0.9090114257812499 Q 2.458413439453125 0.9179736328124999 2.4547589472656255 0.9238034179687499 Q 2.4511044550781254 0.929633203125 2.4462753046875005 0.9328961425781249 Q 2.4414461542968753 0.9361590820312499 2.4360079218750004 0.93772529296875 Q 2.4305696894531255 0.9392915039062499 2.424870421875 0.9395960449218749 Q 2.4191711542968752 0.9399005859374999 2.4138634394531255 0.9399005859374999 L 2.3904572871093754 0.9399005859374999 L 2.3904572871093754 0.7912845703124999 M 2.4187360957031254 0.9241514648437499 Q 2.4248269160156255 0.9241514648437499 2.4287859492187502 0.9225852539062499 Q 2.4327449824218754 0.9210190429687499 2.43505079296875 0.917060009765625 Q 2.4373566035156253 0.9131009765624999 2.4382267207031254 0.906270556640625 Q 2.4390968378906255 0.8994401367187499 2.4390968378906255 0.8889987304687499 L 2.4390968378906255 0.8428825195312499 Q 2.4390968378906255 0.8324411132812499 2.4382267207031254 0.8256106933593749 Q 2.4373566035156253 0.8187802734374999 2.43505079296875 0.8148212402343749 Q 2.4327449824218754 0.8108622070312499 2.4287859492187502 0.8092959960937499 Q 2.4248269160156255 0.8077297851562499 2.4187360957031254 0.8077297851562499 L 2.4129933222656255 0.8077297851562499 L 2.4129933222656255 0.9241514648437499 L 2.4187360957031254 0.9241514648437499 M 2.51030896875 0.9465134765625 Q 2.51561668359375 0.9465134765625 2.5192711757812503 0.94590439453125 Q 2.5229256679687504 0.9452953124999999 2.52518797265625 0.9438596191406249 Q 2.52745027734375 0.9424239257812499 2.5284074062500004 0.9401181152343749 Q 2.52936453515625 0.9378123046874999 2.52936453515625 0.9344188476562499 L 2.52936453515625 0.8991791015624999 Q 2.52936453515625 0.8928272460937499 2.5300606289062504 0.8876065429687499 Q 2.53075672265625 0.88238583984375 2.532366439453125 0.8783397949218749 Q 2.53397615625 0.8742937499999999 2.53667351953125 0.8713353515625 Q 2.5393708828125003 0.8683769531249999 2.543373421875 0.8665497070312499 L 2.543373421875 0.8642874023437499 Q 2.53928387109375 0.8624601562499999 2.5365865078125003 0.8595017578124999 Q 2.5338891445312504 0.8565433593749999 2.532279427734375 0.8524538085937499 Q 2.5306697109375 0.8483642578124999 2.5300171230468753 0.8431870605468749 Q 2.52936453515625 0.8380098632812499 2.52936453515625 0.8315709960937498 L 2.52936453515625 0.7966792968749999 Q 2.52936453515625 0.7932858398437499 2.5284074062500004 0.7909800292968749 Q 2.52745027734375 0.7886742187499999 2.52518797265625 0.78728203125 Q 2.5229256679687504 0.7858898437499999 2.5192711757812503 0.7852807617187498 Q 2.51561668359375 0.7846716796875 2.51030896875 0.7846716796875 L 2.5070025234375004 0.7846716796875 L 2.5070025234375004 0.7712718749999998 Q 2.51039598046875 0.7702277343749999 2.5137894375000003 0.7696186523437499 Q 2.51718289453125 0.7690095703125 2.52005428125 0.7690095703125 Q 2.5258840664062503 0.7690095703125 2.5311482753906254 0.7708368164062499 Q 2.536412484375 0.7726640624999999 2.540371517578125 0.776710107421875 Q 2.5443305507812504 0.7807561523437498 2.546636361328125 0.7871080078124999 Q 2.5489421718750003 0.79345986328125 2.5489421718750003 0.8024220703124999 L 2.5489421718750003 0.8388799804687499 Q 2.5489421718750003 0.8441006835937499 2.5498122890625003 0.8475376464843749 Q 2.55068240625 0.8509746093749999 2.552422640625 0.8531063964843749 Q 2.5541628750000003 0.8552381835937499 2.5566862148437504 0.8561953124999999 Q 2.5592095546875 0.8571524414062499 2.562516 0.85732646484375 L 2.56695359765625 0.8575875 L 2.56695359765625 0.8731625976562499 L 2.5624289882812503 0.8734236328124999 Q 2.5591225429687503 0.8735976562499999 2.556599203125 0.87455478515625 Q 2.55407586328125 0.8755119140625 2.55233562890625 0.877643701171875 Q 2.5505953945312503 0.87977548828125 2.54972527734375 0.8832559570312499 Q 2.54885516015625 0.8867364257812499 2.54885516015625 0.8919571289062499 L 2.54885516015625 0.9286760742187499 Q 2.54885516015625 0.93772529296875 2.5465493496093754 0.9440771484374999 Q 2.5442435390625002 0.95042900390625 2.54032801171875 0.954475048828125 Q 2.536412484375 0.9585210937499999 2.5311482753906254 0.9603483398437499 Q 2.5258840664062503 0.9621755859375 2.52005428125 0.9621755859375 Q 2.51718289453125 0.9621755859375 2.5137894375000003 0.96156650390625 Q 2.51039598046875 0.9609574218749999 2.5070025234375004 0.9598262695312499 L 2.5070025234375004 0.9465134765625 L 2.51030896875 0.9465134765625" fill="#ffffff" fill-rule="nonzero"></path></g><g transform="matrix(1,0,0,1,0,0)"></g></g><defs><clipPath id="SvgjsClipPath1000"><path d=" M 1.99564530859375 0.557082810248559 h 0.6879211796875001 v 0.5947445357528819 h -0.6879211796875001 Z"></path></clipPath></defs></svg>